# File created by Blade
# Date/Time:  Thu Jan 22 19:49:10 2015
#---------------------------------------------------------
:version 1.10
:name HOM
:units
  mass 1.0
  length 1.000000
  angle deg
:documentation
     Acclaim Skeleton File
:root
   axis xyz
   order TX TY TZ RX RY RZ
   position 0.000000 0.000000 0.000000
   orientation 0 0 0
:bonedata
   begin
      id 1
      name RightUpLeg_dum
      direction -1.000000 0.000000 0.000000
      length 4.478084
      axis 0.0 0.0 0.0 xyz
   end
   begin
      id 2
      name LeftUpLeg_dum
      direction 1.000000 0.000000 0.000000
      length 4.478084
      axis 0.0 0.0 0.0 xyz
   end
   begin
      id 3
      name Spine_dum
      direction 0.000000 1.000000 0.000000
      length 6.068208
      axis 0.0 0.0 0.0 xyz
   end
   begin
      id 4
      name RightUpLeg
      direction 0.000000 -1.000000 0.000000
      length 16.405774
      axis 0.0 0.0 0.0 xyz
      dof rx ry rz
   end
   begin
      id 5
      name RightLeg
      direction 0.000000 -1.000000 0.000000
      length 14.644143
      axis 0.0 0.0 0.0 xyz
      dof rx ry rz
   end
   begin
      id 6
      name RightFoot
      direction 0.000000 -0.258819 0.965926
      length 5.806150
      axis 15.0 0.0 0.0 xyz
      dof rx ry rz
   end
   begin
      id 7
      name RightToeBase
      direction 0.000000 0.000000 1.000000
      length 2.952750
      axis 0.0 0.0 0.0 xyz
      dof rx ry rz
   end
   begin
      id 8
      name LeftUpLeg
      direction 0.000000 -1.000000 0.000000
      length 16.405774
      axis 0.0 0.0 0.0 xyz
      dof rx ry rz
   end
   begin
      id 9
      name LeftLeg
      direction 0.000000 -1.000000 0.000000
      length 14.644143
      axis 0.0 0.0 0.0 xyz
      dof rx ry rz
   end
   begin
      id 10
      name LeftFoot
      direction 0.000000 -0.258819 0.965926
      length 5.806150
      axis 15.0 0.0 0.0 xyz
      dof rx ry rz
   end
   begin
      id 11
      name LeftToeBase
      direction 0.000000 0.000000 1.000000
      length 2.952750
      axis 0.0 0.0 0.0 xyz
      dof rx ry rz
   end
   begin
      id 12
      name Spine
      direction 0.000000 1.000000 0.000000
      length 0.000000
      axis 0.0 0.0 0.0 xyz
      dof rx ry rz
   end
   begin
      id 13
      name Spine_dum1
      direction 0.000000 1.000000 0.000000
      length 10.013923
      axis 0.0 0.0 0.0 xyz
   end
   begin
      id 14
      name Spine_dum2
      direction 0.000000 1.000000 0.000000
      length 10.013923
      axis 0.0 0.0 0.0 xyz
   end
   begin
      id 15
      name Spine_dum3
      direction 0.000000 1.000000 0.000000
      length 15.777476
      axis 0.0 0.0 0.0 xyz
   end
   begin
      id 16
      name RightShoulder
      direction -1.000000 0.000000 0.000000
      length 7.190220
      axis 0.0 0.0 90.0 xyz
      dof rx ry rz
   end
   begin
      id 17
      name RightArm
      direction -1.000000 0.000000 0.000000
      length 10.177469
      axis 0.0 0.0 90.0 xyz
      dof rx ry rz
   end
   begin
      id 18
      name RightForeArm
      direction -1.000000 0.000000 0.000000
      length 8.392114
      axis 0.0 0.0 90.0 xyz
      dof ry rz rx
   end
   begin
      id 19
      name RightHand
      direction -1.000000 0.000000 0.000000
      length 0.000000
      axis 0.0 0.0 90.0 xyz
      dof rx ry rz
   end
   begin
      id 20
      name RightHand_dum1
      direction -1.000000 0.000000 0.000000
      length 3.937000
      axis 0.0 0.0 90.0 xyz
   end
   begin
      id 21
      name RightHand_dum2
      direction 0.000000 0.000000 0.000000
      length 0.000000
      axis 0.0 0.0 90.0 xyz
   end
   begin
      id 22
      name RightHandThumb1
      direction 0.000000 0.000000 1.000000
      length 3.937000
      axis 0.0 0.0 90.0 xyz
      dof rx rz ry
   end
   begin
      id 23
      name LeftShoulder
      direction 1.000000 0.000000 0.000000
      length 7.190220
      axis 0.0 0.0 -90.0 xyz
      dof rx ry rz
   end
   begin
      id 24
      name LeftArm
      direction 1.000000 0.000000 0.000000
      length 10.177469
      axis 0.0 0.0 -90.0 xyz
      dof rx ry rz
   end
   begin
      id 25
      name LeftForeArm
      direction 1.000000 0.000000 0.000000
      length 8.392114
      axis 0.0 0.0 -90.0 xyz
      dof ry rz rx
   end
   begin
      id 26
      name LeftHand
      direction 1.000000 0.000000 0.000000
      length 0.000000
      axis 0.0 0.0 -90.0 xyz
      dof rx ry rz
   end
   begin
      id 27
      name LeftHand_dum1
      direction 1.000000 0.000000 0.000000
      length 3.937000
      axis 0.0 0.0 -90.0 xyz
   end
   begin
      id 28
      name LeftHand_dum2
      direction 0.000000 0.000000 0.000000
      length 0.000000
      axis 0.0 0.0 -90.0 xyz
   end
   begin
      id 29
      name LeftHandThumb1
      direction 0.000000 0.000000 1.000000
      length 3.937000
      axis 0.0 0.0 -90.0 xyz
      dof rx rz ry
   end
   begin
      id 30
      name Head
      direction 0.000000 1.000000 0.000000
      length 4.527550
      axis 0.0 0.0 0.0 xyz
      dof rx ry rz
   end
:hierarchy
   begin
      root RightUpLeg_dum LeftUpLeg_dum Spine_dum
      RightUpLeg_dum RightUpLeg
      LeftUpLeg_dum LeftUpLeg
      Spine_dum Spine
      RightUpLeg RightLeg
      RightLeg RightFoot
      RightFoot RightToeBase
      LeftUpLeg LeftLeg
      LeftLeg LeftFoot
      LeftFoot LeftToeBase
      Spine Spine_dum1 Spine_dum2 Spine_dum3
      Spine_dum1 RightShoulder
      Spine_dum2 LeftShoulder
      Spine_dum3 Head
      RightShoulder RightArm
      RightArm RightForeArm
      RightForeArm RightHand
      RightHand RightHand_dum1 RightHand_dum2
      RightHand_dum2 RightHandThumb1
      LeftShoulder LeftArm
      LeftArm LeftForeArm
      LeftForeArm LeftHand
      LeftHand LeftHand_dum1 LeftHand_dum2
      LeftHand_dum2 LeftHandThumb1
   end

# File created by Blade
# Date/Time:  Thu Jan 22 19:49:01 2015
# Frame Rate: 120.000 fps
#------------------------------------------------------
:FULLY-SPECIFIED
:DEGREES
1204
root -2.326980 2.937199 -10.604468 -24.887881 -6.111535 2.166819
RightUpLeg -63.529763 5.151496 8.949139
RightLeg 5.542715 -0.000000 -0.000000
RightFoot 18.047118 1.100744 7.772996
RightToeBase -13.004324 -0.000000 0.000000
LeftUpLeg -98.385636 -32.183418 -43.314125
LeftLeg 126.174117 -0.000000 -0.000000
LeftFoot 5.577887 16.367934 -2.745917
LeftToeBase -18.575202 -0.000000 0.000000
Spine 38.142020 31.748130 8.764627
RightShoulder 6.670282 27.726928 -32.445757
RightArm 68.776926 19.342708 77.502006
RightForeArm -13.516795 -0.000000 55.292225
RightHand 12.199308 -0.000000 -7.674242
RightHandThumb1 -24.326973 -0.000000 -32.862282
LeftShoulder -24.068934 10.628213 19.046334
LeftArm -0.144846 38.593232 -86.023720
LeftForeArm 19.184886 -0.000000 53.033207
LeftHand -15.387430 -0.000000 -8.973953
LeftHandThumb1 -26.253704 0.000000 33.147579
Head -8.281944 -2.274389 0.983428
1205
root -2.318976 2.940690 -10.608840 -24.843682 -5.930642 2.134780
RightUpLeg -63.609071 5.002797 8.862512
RightLeg 5.580026 -0.000000 -0.000000
RightFoot 18.156543 1.082772 7.825750
RightToeBase -13.271729 -0.000000 0.000000
LeftUpLeg -98.285531 -32.217612 -43.398663
LeftLeg 126.093043 -0.000000 -0.000000
LeftFoot 5.619343 16.269343 -2.774036
LeftToeBase -18.727119 -0.000000 0.000000
Spine 38.354973 32.220916 9.099975
RightShoulder 7.078159 27.832311 -32.138711
RightArm 69.223527 18.670094 77.908612
RightForeArm -14.434429 -0.000000 54.760782
RightHand 12.390771 -0.000000 -7.809260
RightHandThumb1 -24.326973 -0.000000 -32.862282
LeftShoulder -24.184146 10.488458 19.045837
LeftArm 0.362079 38.843794 -85.815737
LeftForeArm 19.546111 0.000000 52.917264
LeftHand -15.330081 -0.000000 -9.036072
LeftHandThumb1 -26.253704 0.000000 33.147579
Head -8.501359 -2.708893 1.205594
1206
root -2.310175 2.944176 -10.613992 -24.792537 -5.741710 2.111562
RightUpLeg -63.693363 4.853562 8.763615
RightLeg 5.622866 -0.000000 -0.000000
RightFoot 18.173804 1.110644 7.689379
RightToeBase -13.129000 -0.000000 0.000000
LeftUpLeg -98.188622 -32.253328 -43.492415
LeftLeg 126.006485 -0.000000 -0.000000
LeftFoot 5.675394 16.176966 -2.819670
LeftToeBase -18.777304 -0.000000 0.000000
Spine 38.556411 32.672683 9.413864
RightShoulder 7.466409 28.023526 -31.792815
RightArm 69.473539 17.895423 78.242348
RightForeArm -15.405754 -0.000000 54.201736
RightHand 12.604114 0.000000 -8.208364
RightHandThumb1 -24.326973 -0.000000 -32.862282
LeftShoulder -24.290840 10.428679 18.996062
LeftArm 0.986811 39.104064 -85.501707
LeftForeArm 19.911958 0.000000 52.825429
LeftHand -15.250915 -0.000000 -9.146737
LeftHandThumb1 -26.253704 0.000000 33.147579
Head -8.709017 -3.170289 1.431509
1207
root -2.304150 2.948310 -10.619552 -24.744315 -5.583066 2.071732
RightUpLeg -63.760926 4.719424 8.734798
RightLeg 5.627168 -0.000000 -0.000000
RightFoot 18.305406 1.122434 7.482089
RightToeBase -13.503066 -0.000000 0.000000
LeftUpLeg -98.119485 -32.271571 -43.543238
LeftLeg 125.941064 -0.000000 -0.000000
LeftFoot 5.698960 16.075921 -2.892741
LeftToeBase -18.757386 -0.000000 0.000000
Spine 38.785722 33.101841 9.753235
RightShoulder 7.820603 28.135511 -31.506379
RightArm 69.752815 17.055167 78.789983
RightForeArm -16.481459 -0.000000 53.674156
RightHand 12.703296 -0.000000 -8.474008
RightHandThumb1 -24.326973 -0.000000 -32.862282
LeftShoulder -24.408323 10.293521 18.936412
LeftArm 1.508517 39.354048 -85.207843
LeftForeArm 20.211091 -0.000000 52.769543
LeftHand -15.183479 -0.000000 -9.237923
LeftHandThumb1 -26.253704 0.000000 33.147579
Head -8.994941 -3.581829 1.622488
1208
root -2.299258 2.953318 -10.625641 -24.698245 -5.414315 2.022602
RightUpLeg -63.821151 4.596466 8.665270
RightLeg 5.633975 -0.000000 -0.000000
RightFoot 18.369655 1.112194 7.315477
RightToeBase -13.678884 -0.000000 0.000000
LeftUpLeg -98.037719 -32.285276 -43.578313
LeftLeg 125.878863 -0.000000 -0.000000
LeftFoot 5.707928 15.930483 -2.974609
LeftToeBase -18.850378 -0.000000 0.000000
Spine 39.004810 33.508207 10.059002
RightShoulder 8.142752 28.226204 -31.132104
RightArm 69.860617 16.124137 78.938774
RightForeArm -17.166436 0.000000 53.112979
RightHand 12.770156 -0.000000 -8.931222
RightHandThumb1 -24.326973 -0.000000 -32.862282
LeftShoulder -24.465358 10.127884 18.916644
LeftArm 1.960153 39.507966 -84.983333
LeftForeArm 20.480085 -0.000000 52.694485
LeftHand -15.121264 -0.000000 -9.459232
LeftHandThumb1 -26.253704 0.000000 33.147579
Head -9.275109 -3.964154 1.877187
1209
root -2.297688 2.958379 -10.631082 -24.648130 -5.261107 1.952370
RightUpLeg -63.861292 4.471521 8.699450
RightLeg 5.586142 -0.000000 -0.000000
RightFoot 18.503867 1.001913 7.155036
RightToeBase -13.797648 -0.000000 0.000000
LeftUpLeg -97.974044 -32.305048 -43.588636
LeftLeg 125.826950 -0.000000 -0.000000
LeftFoot 5.736914 15.793766 -3.015892
LeftToeBase -18.989057 -0.000000 0.000000
Spine 39.161071 33.799656 10.297925
RightShoulder 8.581184 28.268161 -30.697148
RightArm 70.005007 15.148967 79.072352
RightForeArm -17.870399 -0.000000 52.479661
RightHand 12.894361 -0.000000 -9.365084
RightHandThumb1 -24.326973 -0.000000 -32.862282
LeftShoulder -24.679499 10.175017 18.776433
LeftArm 2.675242 39.714658 -84.547311
LeftForeArm 20.675556 0.000000 52.636004
LeftHand -15.111625 0.000000 -9.658744
LeftHandThumb1 -26.253704 0.000000 33.147579
Head -9.519920 -4.219248 2.097094
1210
root -2.294863 2.962484 -10.637922 -24.606080 -5.108807 1.905915
RightUpLeg -63.897277 4.367757 8.634986
RightLeg 5.545723 -0.000000 -0.000000
RightFoot 18.596267 1.007059 7.066735
RightToeBase -13.813932 -0.000000 0.000000
LeftUpLeg -97.913988 -32.312226 -43.613841
LeftLeg 125.764815 -0.000000 -0.000000
LeftFoot 5.789263 15.653800 -3.043088
LeftToeBase -19.073314 -0.000000 0.000000
Spine 39.357502 34.117523 10.525819
RightShoulder 8.947368 28.234554 -30.289599
RightArm 70.134752 14.152333 79.295580
RightForeArm -18.622208 0.000000 51.866340
RightHand 12.934335 -0.000000 -9.565907
RightHandThumb1 -24.326973 -0.000000 -32.862282
LeftShoulder -24.729583 9.998979 18.788374
LeftArm 2.984573 39.937950 -84.350838
LeftForeArm 20.797540 -0.000000 52.662531
LeftHand -15.097176 -0.000000 -9.690890
LeftHandThumb1 -26.253704 0.000000 33.147579
Head -9.829127 -4.520006 2.377818
1211
root -2.287729 2.966871 -10.643991 -24.566305 -4.948030 1.888626
RightUpLeg -63.936666 4.247884 8.546099
RightLeg 5.512249 -0.000000 -0.000000
RightFoot 18.636352 1.081330 6.994830
RightToeBase -13.439247 -0.000000 0.000000
LeftUpLeg -97.834373 -32.314525 -43.662078
LeftLeg 125.693962 -0.000000 -0.000000
LeftFoot 5.816905 15.483538 -3.055230
LeftToeBase -19.197061 -0.000000 0.000000
Spine 39.577910 34.402310 10.743670
RightShoulder 9.270590 28.387897 -29.956060
RightArm 69.947841 13.064719 79.386551
RightForeArm -19.294175 -0.000000 51.231114
RightHand 12.975382 -0.000000 -10.019375
RightHandThumb1 -24.326973 -0.000000 -32.862282
LeftShoulder -24.819293 9.916162 18.685628
LeftArm 3.552773 40.186787 -83.935927
LeftForeArm 20.856530 -0.000000 52.618022
LeftHand -15.062767 -0.000000 -9.987090
LeftHandThumb1 -26.253704 0.000000 33.147579
Head -10.181308 -4.810356 2.572148
1212
root -2.280572 2.970629 -10.647800 -24.546914 -4.785552 1.889218
RightUpLeg -63.979792 4.170022 8.317339
RightLeg 5.567171 -0.000000 -0.000000
RightFoot 18.463681 1.189590 7.082491
RightToeBase -12.747484 -0.000000 0.000000
LeftUpLeg -97.738841 -32.308973 -43.750896
LeftLeg 125.625903 -0.000000 -0.000000
LeftFoot 5.818624 15.362524 -3.117207
LeftToeBase -19.108284 -0.000000 0.000000
Spine 39.747331 34.629568 10.839893
RightShoulder 9.701752 28.246832 -29.475543
RightArm 70.037629 12.014409 79.402340
RightForeArm -19.920802 0.000000 50.511582
RightHand 12.970565 -0.000000 -10.627496
RightHandThumb1 -24.326973 -0.000000 -32.862282
LeftShoulder -24.976759 9.922645 18.651878
LeftArm 4.155213 40.567860 -83.520881
LeftForeArm 20.792339 -0.000000 52.581587
LeftHand -15.062209 -0.000000 -9.980047
LeftHandThumb1 -26.253704 0.000000 33.147579
Head -10.516615 -4.943237 2.879730
1213
root -2.275494 2.975100 -10.653876 -24.530379 -4.646040 1.863059
RightUpLeg -63.994490 4.093954 8.154115
RightLeg 5.559153 -0.000000 -0.000000
RightFoot 18.434749 1.334794 7.049890
RightToeBase -12.723803 -0.000000 0.000000
LeftUpLeg -97.642196 -32.298661 -43.819070
LeftLeg 125.553394 -0.000000 -0.000000
LeftFoot 5.867968 15.289092 -3.080712
LeftToeBase -19.239340 -0.000000 0.000000
Spine 39.952183 34.813058 11.003101
RightShoulder 10.122345 28.109356 -29.056967
RightArm 70.080579 10.936608 79.377475
RightForeArm -20.439820 -0.000000 49.681424
RightHand 13.258022 -0.000000 -10.893878
RightHandThumb1 -24.326973 -0.000000 -32.862282
LeftShoulder -25.036052 9.824023 18.611152
LeftArm 4.574049 40.923827 -83.182629
LeftForeArm 20.795370 0.000000 52.544469
LeftHand -15.080246 -0.000000 -9.922547
LeftHandThumb1 -26.253704 0.000000 33.147579
Head -10.849885 -5.094735 3.050739
1214
root -2.273711 2.979151 -10.659384 -24.517667 -4.513879 1.819979
RightUpLeg -63.993497 4.004643 8.071109
RightLeg 5.528790 -0.000000 -0.000000
RightFoot 18.428146 1.463573 7.054752
RightToeBase -13.041784 -0.000000 0.000000
LeftUpLeg -97.556581 -32.301769 -43.859461
LeftLeg 125.496090 -0.000000 -0.000000
LeftFoot 5.898683 15.230041 -3.057851
LeftToeBase -19.367471 -0.000000 0.000000
Spine 40.203235 35.033497 11.203911
RightShoulder 10.378329 27.898892 -28.646880
RightArm 70.160491 9.759814 79.316029
RightForeArm -21.161435 -0.000000 48.804948
RightHand 13.118087 -0.000000 -11.558385
RightHandThumb1 -24.326973 -0.000000 -32.862282
LeftShoulder -24.992141 9.612080 18.664823
LeftArm 4.842751 41.244477 -82.973414
LeftForeArm 20.760613 -0.000000 52.465984
LeftHand -15.052121 -0.000000 -10.010797
LeftHandThumb1 -26.253704 0.000000 33.147579
Head -11.285302 -5.285240 3.297223
1215
root -2.272483 2.982375 -10.665488 -24.505602 -4.393265 1.772911
RightUpLeg -63.985853 3.899108 8.065194
RightLeg 5.451094 -0.000000 -0.000000
RightFoot 18.584739 1.573876 7.013632
RightToeBase -13.462356 -0.000000 0.000000
LeftUpLeg -97.481094 -32.299525 -43.886344
LeftLeg 125.442381 -0.000000 -0.000000
LeftFoot 5.940977 15.164923 -3.010890
LeftToeBase -19.480300 -0.000000 0.000000
Spine 40.443169 35.213777 11.382127
RightShoulder 10.667874 27.911913 -28.200750
RightArm 69.955690 8.532560 79.240694
RightForeArm -21.791864 -0.000000 47.883253
RightHand 13.114683 0.000000 -11.942445
RightHandThumb1 -24.326973 -0.000000 -32.862282
LeftShoulder -25.006600 9.481665 18.706632
LeftArm 5.233402 41.787709 -82.628064
LeftForeArm 20.646442 -0.000000 52.407402
LeftHand -15.043752 0.000000 -9.715250
LeftHandThumb1 -26.253704 0.000000 33.147579
Head -11.735237 -5.426882 3.534387
